# xmcd
#
# Track frame offsets: 
#        150
#        14191
#        27358
#        39138
#        49601
#        60860
#        71996
#        82753
#        95099
#        106889
#        118738
#        130556
#        142318
#        151623
#        161802
#        177147
#        192162
#        209406
#        223777
#        237795
#
# Disc length: 3307 seconds
#
# Revision: 0
# Processed by: cddbd v1.5.2PL0 Copyright (c) Steve Scherf et al.
# Submitted via: ExactAudioCopyFreeDBPlugin 1.0
#
DISCID=130ce914
DTITLE=Various (1960's - 1970's) Pop and Soul and R&B Artists - Haynes Ult
DTITLE=imate Guide To Northern Soul- CD2- *ReMastered Tracks
DYEAR=2011
DGENRE=Soul
TTITLE0=Tobi Legend - Time Will Pass You By
TTITLE1=Sandi Sheldon - You’re Gonna Make Me Love You
TTITLE2=Johnny Johnson and The Bandwagon - Breakin' Down The Walls Of He
TTITLE2=artache
TTITLE3=Roy Hamilton - Crackin' Up Over You
TTITLE4=Robert Knight - Love On A Mountain Top
TTITLE5=The Incredibles - There's Nothing Else To Say
TTITLE6=The Glories - I Worship You Baby
TTITLE7=Percy Wiggins - It Didn’t Take Much (For Me To Fall In Love)
TTITLE8=Patti Austin - Are We Ready For Love
TTITLE9=Larry Williams and Johnny ‘Guitar’ Watson - A Quitter Never Wins
TTITLE10=Paul Anka - I Can't Help Lovin' You
TTITLE11=The Metros - Since I Found My Baby
TTITLE12=Michael And Raymond - Man Without A Woman
TTITLE13=Susan Barrett - What’s It Gonna Be
TTITLE14=The Brothers - Are You Ready For This
TTITLE15=Jeff Perry - Love Don't Come No Stronger
TTITLE16=Phyllis Hyman - You Know How To Love Me
TTITLE17=Ronnie Dyson - Lady In Red
TTITLE18=Ujima - I'm Not Ready
TTITLE19=The M.V.P.'S - Turnin' My Heartbeat Up
EXTD=
EXTT0=
EXTT1=
EXTT2=
EXTT3=
EXTT4=
EXTT5=
EXTT6=
EXTT7=
EXTT8=
EXTT9=
EXTT10=
EXTT11=
EXTT12=
EXTT13=
EXTT14=
EXTT15=
EXTT16=
EXTT17=
EXTT18=
EXTT19=
PLAYORDER=
